<?xml version="1.0" encoding="UTF-8" standalone="no"?>
<!-- Created with Inkscape (http://www.inkscape.org/) -->

<svg
   xmlns:dc="http://purl.org/dc/elements/1.1/"
   xmlns:cc="http://creativecommons.org/ns#"
   xmlns:rdf="http://www.w3.org/1999/02/22-rdf-syntax-ns#"
   xmlns:svg="http://www.w3.org/2000/svg"
   xmlns="http://www.w3.org/2000/svg"
   xmlns:sodipodi="http://sodipodi.sourceforge.net/DTD/sodipodi-0.dtd"
   xmlns:inkscape="http://www.inkscape.org/namespaces/inkscape"
   width="303.3071"
   height="191.26772"
   id="svg2"
   version="1.1"
   inkscape:version="0.48.2 r9819"
   sodipodi:docname="alquimia-logo.svg">
  <defs
     id="defs4">
    <inkscape:path-effect
       effect="spiro"
       id="path-effect2997"
       is_visible="true" />
    <inkscape:path-effect
       effect="spiro"
       id="path-effect2993"
       is_visible="true" />
  </defs>
  <sodipodi:namedview
     id="base"
     pagecolor="#ffffff"
     bordercolor="#666666"
     borderopacity="1.0"
     inkscape:pageopacity="0.0"
     inkscape:pageshadow="2"
     inkscape:zoom="2.2419521"
     inkscape:cx="151.65355"
     inkscape:cy="95.633858"
     inkscape:document-units="px"
     inkscape:current-layer="layer1"
     showgrid="true"
     inkscape:window-width="811"
     inkscape:window-height="836"
     inkscape:window-x="469"
     inkscape:window-y="0"
     inkscape:window-maximized="0">
    <inkscape:grid
       type="xygrid"
       id="grid2985"
       empspacing="5"
       visible="true"
       enabled="true"
       snapvisiblegridlinesonly="true" />
  </sodipodi:namedview>
  <metadata
     id="metadata7">
    <rdf:RDF>
      <cc:Work
         rdf:about="">
        <dc:format>image/svg+xml</dc:format>
        <dc:type
           rdf:resource="http://purl.org/dc/dcmitype/StillImage" />
        <dc:title></dc:title>
      </cc:Work>
    </rdf:RDF>
  </metadata>
  <g
     inkscape:label="Layer 1"
     inkscape:groupmode="layer"
     id="layer1"
     transform="translate(0,-861.09447)">
    <text
       xml:space="preserve"
       style="font-size:40px;font-style:normal;font-weight:normal;line-height:125%;letter-spacing:0px;word-spacing:0px;fill:#000000;fill-opacity:1;stroke:none;font-family:Bitstream Vera Sans"
       x="56.509186"
       y="957.36218"
       id="text2987"
       sodipodi:linespacing="125%"><tspan
         sodipodi:role="line"
         id="tspan2989"
         x="56.509186"
         y="957.36218"
         style="font-weight:bold;fill:#008000;-inkscape-font-specification:Bitstream Vera Sans Bold;font-style:normal">alquimia</tspan></text>
    <g
       id="g3810"
       transform="matrix(0,0.80398184,-0.80438964,0,778.53763,805.16523)">
      <path
         transform="translate(0,861.09447)"
         inkscape:connector-curvature="0"
         d="m 113.55401,50.724655 c 0.77571,0.447974 1.51402,0.965396 2.05558,1.684196 0.52827,0.629527 0.91984,1.360135 1.29053,2.089788 0.4457,0.905755 1.09283,1.687003 1.6804,2.501627 0.63345,0.961934 1.085,2.019704 1.694,2.99651 0.48522,1.103291 1.34709,1.937226 2.14156,2.816549 0.70638,0.985599 1.28991,2.046517 2.11401,2.94365 0.66015,0.841213 1.34183,1.66533 1.95208,2.544774 0.52305,0.879024 1.09765,1.699315 1.73825,2.494201 0.80423,0.829611 1.67503,1.587374 2.5712,2.314808 1.0356,0.868487 2.16911,1.500064 3.43268,1.973268 1.24929,0.532158 2.57333,0.788468 3.91703,0.920148 1.13732,0.08457 2.27845,0.06979 3.41795,0.07405 1.27934,0.07065 2.5185,-0.122479 3.73039,-0.521015 1.49854,-0.213327 2.80905,-0.940559 4.18832,-1.501128 1.19081,-0.526269 2.39127,-1.060966 3.67046,-1.32961 0.64366,-0.05618 1.24974,-0.295425 1.83311,-0.561035 0.25018,-0.113908 0.97623,-0.505058 0.73849,-0.36705 -5.97599,3.469112 -6.01815,3.518394 -3.87201,2.13289 1.86162,-1.156792 3.55257,-2.535811 5.20624,-3.965901 1.60338,-1.36413 3.14155,-2.801424 4.65564,-4.263179 1.16097,-1.090659 2.00736,-2.440686 2.85271,-3.775545 0.83042,-1.166098 1.44223,-2.463584 2.14108,-3.707796 0.92759,-1.441384 1.83961,-2.882353 2.65512,-4.390573 0.59225,-1.16979 1.21777,-2.321058 1.77751,-3.506978 0.37091,-0.86962 0.61731,-1.78255 1.07011,-2.616188 0.14388,-0.292866 0.31639,-0.569275 0.49145,-0.844013 0,0 6.00583,-2.677276 6.00583,-2.677276 l 0,0 c -0.15198,0.296708 -0.33803,0.556268 -0.50745,0.842829 -0.47342,0.832353 -0.89768,1.665541 -1.15615,2.598967 -0.54486,1.229132 -1.22672,2.384178 -1.83361,3.583021 -0.83272,1.504106 -1.6598,2.999748 -2.65923,4.403847 -0.70943,1.231978 -1.23752,2.56598 -2.06683,3.728069 -0.93974,1.31682 -1.69838,2.776777 -2.85792,3.927266 -1.55074,1.475607 -3.12393,2.928226 -4.73909,4.333294 -1.64615,1.415279 -3.25339,2.873978 -5.11361,4.013655 -3.01742,2.070235 -6.14503,4.292171 -9.77,5.049959 -1.23218,0.364212 -2.41248,0.875594 -3.58794,1.391254 -1.37218,0.603596 -2.76502,1.114188 -4.23238,1.440301 -1.2686,0.325979 -2.55858,0.449337 -3.86908,0.394815 -1.15439,0.0024 -2.31291,-5.33e-4 -3.46066,-0.138755 -1.36828,-0.195618 -2.69733,-0.556268 -3.97913,-1.078153 -1.29446,-0.535932 -2.48335,-1.21444 -3.55385,-2.126465 -0.93797,-0.747243 -1.8614,-1.518121 -2.67208,-2.40558 -0.67733,-0.792447 -1.23367,-1.650512 -1.78235,-2.534624 -0.59106,-0.85845 -1.25069,-1.668472 -1.88067,-2.498378 -0.78723,-0.92787 -1.41921,-1.96202 -2.14609,-2.935084 -0.76505,-0.944179 -1.6685,-1.781985 -2.16019,-2.918456 -0.60571,-0.966804 -1.07642,-2.006147 -1.72277,-2.947633 -0.56386,-0.866897 -1.26297,-1.641395 -1.7325,-2.568839 -0.35666,-0.694456 -0.75929,-1.368727 -1.2433,-1.982688 -0.4636,-0.603117 -1.12432,-1.08725 -1.86827,-1.275754 0,0 5.44543,-3.756041 5.44543,-3.756041 z"
         id="path3001"
         style="fill:#000000;fill-opacity:1" />
      <path
         transform="translate(0,861.09447)"
         inkscape:connector-curvature="0"
         d="m 178.66756,43.352941 c -0.50074,0.760875 -0.94533,1.557615 -1.49268,2.28788 -1.83401,2.089763 -4.82664,3.225059 -7.05795,4.471978 -0.25794,0.144144 -0.56045,0.193308 -0.82385,0.327224 -0.75786,0.385628 -1.5748,0.620644 -2.30997,1.05084 -1.01724,0.465402 -2.12749,0.66667 -3.16085,1.076025 -0.92575,0.337624 -1.82968,0.666884 -2.80319,0.834227 -0.92772,0.09634 -1.76971,0.453666 -2.61943,0.809361 -0.1144,0.03453 -0.2288,0.06906 -0.3432,0.103588 0,0 5.186,-4.035281 5.186,-4.035281 l 0,0 c 0.10565,-0.04067 0.21129,-0.08134 0.31693,-0.122017 0.85999,-0.318485 1.74004,-0.554122 2.64861,-0.692351 0.93567,-0.233865 1.82891,-0.601794 2.74704,-0.895278 1.06422,-0.318268 2.13082,-0.653715 3.12171,-1.163964 0.77764,-0.353809 1.57315,-0.667037 2.34455,-1.035953 2.06949,-0.831088 4.83249,-2.703901 -4.38522,2.672806 -0.61854,0.360791 1.75181,-1.039661 1.1405,-0.841577 0.5721,-0.656719 1.08171,-1.387835 1.42186,-2.192056 0,0 6.06914,-2.655452 6.06914,-2.655452 z"
         id="path3003"
         style="fill:#000000;fill-opacity:1" />
      <path
         transform="translate(0,861.09447)"
         inkscape:connector-curvature="0"
         d="m 177.81039,43.606708 c 0.0721,0.808101 0.39115,1.546396 0.68056,2.293423 0.27425,0.697071 0.49919,1.476764 0.98899,2.058557 0.51427,0.542527 0.79051,1.205458 1.0726,1.884048 0.25844,0.820231 0.65446,1.585873 0.95323,2.389987 0.20423,0.609388 0.26434,1.245858 0.28979,1.88383 0.0174,0.682061 -0.007,1.363907 -0.006,2.045821 0.0383,0.430149 -0.008,0.230144 0.12473,0.602936 0,0 -5.74079,3.191736 -5.74079,3.191736 l 0,0 c -0.20932,-0.531366 -0.13229,-0.258867 -0.2322,-0.817179 0.005,-0.67093 -0.007,-1.342078 -0.01,-2.013059 -0.0117,-0.57595 -0.0238,-1.156305 -0.18025,-1.715463 -0.25716,-0.801681 -0.62125,-1.564694 -0.89217,-2.36131 -0.28788,-0.608953 -0.57189,-1.215548 -1.02415,-1.725151 -0.49591,-0.666312 -0.7686,-1.465963 -1.04774,-2.242387 -0.30895,-0.763427 -0.65188,-1.511177 -0.79581,-2.329084 0,0 5.81883,-3.146705 5.81883,-3.146705 z"
         id="path3011"
         style="fill:#000000;fill-opacity:1" />
    </g>
    <g
       id="g3805"
       transform="matrix(0,0.73381684,-1,0,1269.673,866.09729)">
      <path
         transform="translate(0,861.09447)"
         inkscape:connector-curvature="0"
         d="m 108.77619,155.2279 c 2.31261,-1.5483 4.04772,-3.77398 5.96598,-5.75664 2.62683,-2.54424 5.50248,-4.81052 8.29267,-7.16911 2.06356,-1.85213 4.22341,-3.5852 6.4514,-5.23395 1.83207,-1.26254 3.7868,-2.33104 5.6843,-3.48972 2.71624,-1.75392 5.52056,-3.3293 8.35566,-4.90139 1.06134,-0.58852 2.29623,-0.95615 3.42631,-1.38773 2.11089,-0.63742 4.23249,-1.26615 6.36845,-1.81759 2.18729,-0.58805 4.38867,-1.12442 6.60781,-1.5768 2.1275,-0.46178 4.27579,-0.68671 6.44644,-0.80345 2.88963,-0.16968 5.76349,-0.11113 8.62776,0.30409 2.60831,0.31479 5.0583,1.27166 7.43282,2.34805 2.17153,1.11099 4.18913,2.51311 5.86614,4.28542 1.80905,1.98812 3.11391,4.35602 4.67137,6.53637 1.2941,1.64952 2.51477,3.33443 3.52715,5.17 0.70989,1.42655 1.31817,2.9004 1.96654,4.35706 0.58535,1.0558 0.86554,2.22544 1.23503,3.36326 0.29765,0.67637 0.2945,1.82228 1.09792,2.13022 0,0 -5.57575,3.55481 -5.57575,3.55481 l 0,0 c -0.73193,-0.68453 -0.92549,-1.63305 -1.19365,-2.5641 -0.37295,-1.11678 -0.67826,-2.26035 -1.2053,-3.31977 -0.58383,-1.46453 -1.16463,-2.93442 -1.85452,-4.35049 -0.9644,-1.83318 -2.16468,-3.50478 -3.40383,-5.16287 -1.45499,-2.20296 -2.78812,-4.52051 -4.61453,-6.44477 -1.67743,-1.65975 -3.60844,-3.05189 -5.73036,-4.09446 -2.32965,-1.04332 -4.74196,-1.90514 -7.28797,-2.23328 -2.85641,-0.39078 -5.72562,-0.38228 -8.59959,-0.16668 -2.17208,0.16707 -4.32016,0.47559 -6.45373,0.91994 -2.20333,0.47415 -4.40292,0.96128 -6.56838,1.59095 -2.10541,0.58625 -4.22526,1.13868 -6.2937,1.84412 -0.3791,0.14778 -0.7602,0.29052 -1.1373,0.44334 -0.38363,0.15546 -0.76755,0.31083 -1.14471,0.48142 -0.36861,0.16672 -1.43589,0.74291 -1.0918,0.53013 8.20366,-5.07296 4.25391,-2.45844 2.43975,-1.3268 -1.90813,1.1972 -3.89535,2.26074 -5.78994,3.47974 -2.28686,1.64446 -4.48991,3.39365 -6.60919,5.25004 -2.78653,2.34857 -5.66506,4.59457 -8.30528,7.11094 -1.85594,1.8813 -3.47261,3.99965 -5.49617,5.70989 0,0 -6.1078,2.38981 -6.1078,2.38981 z"
         id="path3015"
         style="fill:#000000;fill-opacity:1" />
      <path
         transform="translate(0,861.09447)"
         inkscape:connector-curvature="0"
         d="m 195.55595,153.63594 c 0.0473,-1.85065 0.54402,-3.63923 1.06247,-5.40304 0.59908,-1.94665 1.2393,-3.87809 1.97858,-5.77618 0.4033,-1.16483 1.00782,-2.23788 1.59919,-3.3136 0.3482,-0.91082 0.93048,-1.65687 1.54408,-2.39911 0.32656,-0.4353 0.17277,-0.22039 0.46298,-0.64359 0,0 5.99295,-2.65523 5.99295,-2.65523 l 0,0 c -0.26715,0.5021 -0.11443,0.25799 -0.46131,0.73036 -0.55866,0.75222 -1.29822,1.38625 -1.60049,2.30239 -0.57782,1.09634 -1.28447,2.12829 -1.71806,3.29703 -0.82881,1.87278 -1.50116,3.80635 -2.11078,5.76045 -0.47821,1.65622 -1.0158,3.36869 -0.88604,5.11288 0,0 -5.86357,2.98764 -5.86357,2.98764 z"
         id="path3017"
         style="fill:#000000;fill-opacity:1" />
      <path
         transform="translate(0,861.09447)"
         inkscape:connector-curvature="0"
         d="m 195.00118,154.2013 c -1.22347,-0.60964 -2.41372,-1.26779 -3.7218,-1.67848 -1.10985,-0.46828 -2.32877,-0.52553 -3.4714,-0.85774 -0.80518,-0.25564 -1.64133,-0.33397 -2.47977,-0.38088 -0.80856,-0.0428 -1.61812,-0.0138 -2.42712,-0.0203 -0.83906,0.002 -1.67809,-0.004 -2.5172,-0.005 -0.57157,0.004 -1.1431,10e-4 -1.71465,0.007 0,0 5.30156,-3.85202 5.30156,-3.85202 l 0,0 c 0.566,0.005 1.13198,0.002 1.698,0.005 0.84741,-0.002 1.69471,-0.0117 2.54208,-0.0123 0.81247,-0.006 1.62508,0.0284 2.43631,0.0708 0.86439,0.074 1.71445,0.22673 2.54472,0.48256 1.15598,0.26606 2.3063,0.56077 3.42971,0.94425 1.29971,0.4787 2.49036,1.20588 3.82034,1.60576 0,0 -5.44078,3.69152 -5.44078,3.69152 z"
         id="path3019"
         style="fill:#000000;fill-opacity:1" />
    </g>
    <text
       xml:space="preserve"
       style="font-size:40px;font-style:normal;font-weight:normal;line-height:125%;letter-spacing:0px;word-spacing:0px;fill:#000000;fill-opacity:1;stroke:none;font-family:Bitstream Vera Sans"
       x="50"
       y="912.36218"
       id="text3021"
       sodipodi:linespacing="125%"><tspan
         sodipodi:role="line"
         id="tspan3023"
         x="50"
         y="912.36218"
         style="fill:#ac9d93;stroke:#000000;stroke-opacity:1">Pb</tspan></text>
    <text
       xml:space="preserve"
       style="font-size:40px;font-style:normal;font-weight:normal;line-height:125%;letter-spacing:0px;word-spacing:0px;fill:#000000;fill-opacity:1;stroke:none;font-family:Bitstream Vera Sans"
       x="195"
       y="1017.3622"
       id="text3025"
       sodipodi:linespacing="125%"><tspan
         sodipodi:role="line"
         id="tspan3027"
         x="195"
         y="1017.3622"
         style="fill:#d4aa00;stroke:#000000;stroke-opacity:1">Au</tspan></text>
    <text
       xml:space="preserve"
       style="font-size:40px;font-style:normal;font-weight:normal;line-height:125%;letter-spacing:0px;word-spacing:0px;fill:#000000;fill-opacity:1;stroke:none;font-family:Bitstream Vera Sans"
       x="25.433823"
       y="1042.3622"
       id="text3815"
       sodipodi:linespacing="125%"><tspan
         sodipodi:role="line"
         id="tspan3817"
         x="25.433823"
         y="1042.3622"
         style="font-size:12px">https://bitbucket.org/berkeleylab/alquimia</tspan></text>
    <text
       sodipodi:linespacing="125%"
       id="text3939"
       y="977.36218"
       x="82.734772"
       style="font-size:40px;font-style:normal;font-weight:bold;line-height:125%;letter-spacing:0px;word-spacing:0px;fill:#008000;fill-opacity:1;stroke:none;font-family:Bitstream Vera Sans;-inkscape-font-specification:Bitstream Vera Sans Bold"
       xml:space="preserve"><tspan
         style="font-size:12px;font-weight:bold;fill:#008000;fill-opacity:1;-inkscape-font-specification:Bitstream Vera Sans Bold"
         y="977.36218"
         x="82.734772"
         id="tspan3941"
         sodipodi:role="line">Biogeochemistry API</tspan></text>
  </g>
</svg>
